<?xml version="1.0" encoding="UTF-8"?>
<svg width="290px" height="290px" viewBox="0 0 290 290" version="1.1" xmlns="http://www.w3.org/2000/svg" xmlns:xlink="http://www.w3.org/1999/xlink">
    <!-- Generator: Sketch 64 (93537) - https://sketch.com -->
    <title>Group</title>
    <desc>Created with Sketch.</desc>
    <defs>
        <filter x="-35.0%" y="-37.0%" width="170.0%" height="173.9%" filterUnits="objectBoundingBox" id="filter-1">
            <feOffset dx="0" dy="2" in="SourceAlpha" result="shadowOffsetOuter1"></feOffset>
            <feGaussianBlur stdDeviation="14.5" in="shadowOffsetOuter1" result="shadowBlurOuter1"></feGaussianBlur>
            <feColorMatrix values="0 0 0 0 0.86453999   0 0 0 0 0.662099738   0 0 0 0 0.615176501  0 0 0 1 0" type="matrix" in="shadowBlurOuter1" result="shadowMatrixOuter1"></feColorMatrix>
            <feMerge>
                <feMergeNode in="shadowMatrixOuter1"></feMergeNode>
                <feMergeNode in="SourceGraphic"></feMergeNode>
            </feMerge>
        </filter>
        <polygon id="path-2" points="0.400733881 0.906312118 159.324652 0.906312118 159.324652 133.374847 0.400733881 133.374847"></polygon>
    </defs>
    <g id="Page-1" stroke="none" stroke-width="1" fill="none" fill-rule="evenodd">
        <g id="Icono_categoria" transform="translate(-5.000000, -5.000000)">
            <g id="Group" transform="translate(5.000000, 5.000000)">
                <circle id="Oval" fill="#FFFFFF" cx="145" cy="145" r="145"></circle>
                <g id="Group-11" filter="url(#filter-1)" transform="translate(60.000000, 65.000000)">
                    <path d="M149.158879,9.87640738 C147.990436,8.70786421 146.096461,8.70786421 144.928018,9.87640738 L113.911544,40.8955334 C112.7431,42.0640766 112.7431,43.9582134 113.911544,45.1267565 C114.497874,45.7089188 115.26137,46 116.029083,46 C116.792579,46 117.556074,45.7089188 118.142405,45.1267565 L149.158879,14.1076305 C150.327322,12.9390873 150.327322,11.0449505 149.158879,9.87640738" id="Fill-1" fill="#E9522F"></path>
                    <g id="Group-10" transform="translate(0.035211, 0.000000)">
                        <path d="M157.631201,18.6061309 C156.454071,17.4253695 154.546017,17.4253695 153.368888,18.6061309 L122.121844,49.9495912 C120.944715,51.1303526 120.944715,53.0442944 122.121844,54.2250558 C122.708284,54.8133051 123.481705,55.1074298 124.250876,55.1074298 C125.024296,55.1074298 125.793467,54.8133051 126.384157,54.2250558 L157.631201,22.8815954 C158.80833,21.700834 158.80833,19.7868922 157.631201,18.6061309" id="Fill-3" fill="#E9522F"></path>
                        <g id="Group-7" transform="translate(8.499128, 26.557766)">
                            <mask id="mask-3" fill="white">
                                <use xlink:href="#path-2"></use>
                            </mask>
                            <g id="Clip-6"></g>
                            <path d="M132.944634,110.232776 C132.961632,110.245564 132.97863,110.262614 132.995628,110.275403 C133.212356,110.46296 133.407836,110.641993 133.586318,110.821025 C137.347182,114.593494 137.347182,120.731748 133.586318,124.504217 C129.825454,128.276685 123.710331,128.276685 119.945217,124.504217 C119.766736,124.325184 119.588254,124.129101 119.401273,123.907442 C119.388525,123.890391 119.375776,123.873341 119.358778,123.860553 L75.4480333,74.2344726 L82.9697615,65.7389584 L132.944634,110.232776 Z M119.651998,44.9754611 L158.442017,6.06574992 C159.619147,4.88498853 159.619147,2.97104677 158.442017,1.79028538 C157.264888,0.613786666 155.356834,0.609523989 154.179705,1.79028538 L115.393934,40.6999966 C110.613175,45.4955076 103.308175,46.7529972 97.2100503,43.8330638 C95.9989246,43.2490771 94.5498233,43.5432018 93.6574148,44.5534561 L80.4752675,59.4472478 C80.4710179,59.4515105 80.4667683,59.4557732 80.4625188,59.4642985 C80.4582692,59.4685612 80.4497701,59.4770866 80.4455205,59.4813492 L23.4801157,123.860553 C23.467367,123.877603 23.4546183,123.890391 23.4376201,123.907442 C23.2506393,124.129101 23.0721576,124.325184 22.8936759,124.504217 C19.1328118,128.276685 13.0134397,128.276685 9.2525756,124.504217 C7.42951266,122.675528 6.42661557,120.245803 6.42661557,117.662621 C6.42661557,115.079439 7.42951266,112.649713 9.25682516,110.816762 C9.43105728,110.641993 9.62653722,110.467223 9.84751455,110.275403 C9.86451281,110.258352 9.88151106,110.245564 9.89850932,110.232776 L45.5098552,78.5227252 C46.7549775,77.4144293 46.8697157,75.5047502 45.7648291,74.255786 C44.6599425,73.0068218 42.7561378,72.8959922 41.5110156,74.0042881 L5.92091746,105.688763 C5.58095234,105.978625 5.27498374,106.259961 4.99026295,106.545561 C2.03256644,109.516646 0.400733881,113.463885 0.400733881,117.662621 C0.400733881,121.861357 2.03256644,125.812858 4.99026295,128.779681 C8.04569943,131.844546 12.0615374,133.374847 16.0731257,133.374847 C20.0847141,133.374847 24.100552,131.844546 27.1559885,128.783944 C27.4449589,128.494082 27.7254301,128.187169 28.0101509,127.850418 L71.4194467,78.7912738 L114.832992,127.850418 C115.117713,128.187169 115.398184,128.494082 115.687154,128.779681 C118.742591,131.844546 122.754179,133.374847 126.765768,133.374847 C130.781606,133.374847 134.793194,131.844546 137.85288,128.779681 C143.959503,122.649952 143.959503,112.679552 137.85288,106.549823 C137.56391,106.259961 137.257941,105.978625 136.922225,105.688763 L86.9728507,61.2162586 L96.7425983,50.1716638 C104.659536,52.9850302 113.621866,51.0241991 119.651998,44.9754611 L119.651998,44.9754611 Z" id="Fill-5" fill="#E9522F" mask="url(#mask-3)"></path>
                        </g>
                        <path d="M68.8773575,83.7619938 L57.9049834,71.3618679 C56.9360828,70.26636 55.3169989,70.0276501 54.0718767,70.7949319 C44.4083683,76.7712043 32.0463867,75.3176317 24.0104613,67.2569104 C15.4220925,58.6420412 9.40470999,48.7782077 7.07169938,39.4770476 C4.90017219,30.8238143 6.149544,23.6071029 10.5860888,19.1568687 C15.0226335,14.7066344 22.2171453,13.4534075 30.8437601,15.6316352 C40.1163087,17.9718446 49.9497997,24.0077945 58.5381684,32.6226638 C66.5740939,40.683385 68.0274447,53.083511 62.0653065,62.7768374 C61.300385,64.0258016 61.5383606,65.6456187 62.6304985,66.6217716 L75.3791904,77.9732791 L68.8773575,83.7619938 Z M140.087301,1.41134636 C138.910171,0.230584965 137.002117,0.230584965 135.824988,1.41134636 L97.0392178,40.3210575 C91.004837,46.3697955 89.0500376,55.3597802 91.8547498,63.3011466 L79.9177247,73.9322618 L68.4481516,63.7146262 C74.3805428,52.0093165 72.2132652,37.7890277 62.8047306,28.3514619 C53.4556899,18.9735736 42.627801,12.3749503 32.3141093,9.77045499 C21.5499638,7.05086738 12.3199109,8.86676757 6.32377612,14.8814041 C0.327641381,20.8960407 -1.48267286,30.1545741 1.22854894,40.9519336 C3.82503251,51.2974495 10.4033575,62.1587493 19.7523982,71.5323749 C29.1609328,80.9742034 43.3374782,83.1481684 55.0110303,77.197472 C55.0110303,77.197472 66.2256296,89.8746719 66.3701148,90.032391 C66.9650537,90.7058939 67.7937187,91.0511707 68.6266332,91.0511707 C69.3363104,91.0511707 70.0502372,90.7996727 70.6239283,90.2881516 L97.4599247,66.3958497 C98.4628218,65.5006877 98.7560417,64.0513776 98.178101,62.8322522 C95.2671497,56.7153114 96.520771,49.3877705 101.297281,44.5965221 L140.087301,5.6868109 C141.26443,4.5060495 141.26443,2.59210775 140.087301,1.41134636 L140.087301,1.41134636 Z" id="Fill-8" fill="#E9522F"></path>
                    </g>
                </g>
            </g>
        </g>
    </g>
</svg>