<?xml version="1.0" encoding="UTF-8"?>
<svg width="215px" height="153px" viewBox="0 0 215 153" version="1.1" xmlns="http://www.w3.org/2000/svg" xmlns:xlink="http://www.w3.org/1999/xlink">
    <!-- Generator: Sketch 64 (93537) - https://sketch.com -->
    <title>no encontrado</title>
    <desc>Created with Sketch.</desc>
    <defs>
        <polygon id="path-1" points="0 0 178 0 178 146 0 146"></polygon>
    </defs>
    <g id="UI-Pantallas" stroke="none" stroke-width="1" fill="none" fill-rule="evenodd">
        <g id="Buscador---No-encontrado---Mensaje" transform="translate(-40.000000, -307.000000)">
            <g id="no-encontrado" transform="translate(40.000000, 307.000000)">
                <path d="M207.257941,23.8372066 C206.728249,23.6023949 206.411515,23.0617812 206.460662,22.4884038 C206.722777,19.5396058 206.2313,17.3280085 205.084546,17.0331287 C203.937792,16.7382489 202.441562,18.4365374 201.240201,21.145063 C201.005389,21.6747545 200.464759,21.9914768 199.891382,21.9423301 C196.942585,21.6802148 194.730993,22.1716793 194.436114,23.318434 C194.141234,24.4651888 195.839538,25.9614313 198.548062,27.1627934 C199.077754,27.3976051 199.394455,27.9382188 199.345309,28.5115962 C199.083193,31.4603942 199.57467,33.6719915 200.721424,33.9668713 C201.868179,34.2617511 203.364408,32.5634626 204.565769,29.854937 C204.800581,29.3252455 205.341211,29.0085232 205.914588,29.0576699 C208.863385,29.3197852 211.074977,28.8283207 211.369856,27.681566 C211.664736,26.5348112 209.966465,25.0385687 207.257941,23.8372066 Z" id="Vector" fill="#E06738" fill-rule="nonzero"></path>
                <path d="M42.2527158,135.672647 C41.7114261,135.717224 41.2019777,135.411553 40.9854619,134.91484 C39.8710419,132.361226 38.4764218,130.756477 37.4002104,131.030306 C36.317631,131.304135 35.8463897,133.373758 36.0756418,136.150256 C36.1202186,136.691546 35.8145524,137.201008 35.3178395,137.417524 C32.7642255,138.531944 31.1594617,139.926544 31.4332907,141.002756 C31.7071196,142.085335 33.7767522,142.556587 36.5532501,142.327334 C37.0945398,142.282758 37.6039924,142.588429 37.8205083,143.085142 C38.9349283,145.638756 40.3295435,147.243524 41.4057549,146.969695 C42.4819662,146.695866 42.9595765,144.626224 42.7303244,141.849726 C42.6857476,141.308436 42.9914187,140.798993 43.4881316,140.582477 C46.0417455,139.474426 47.6465092,138.079805 47.3726803,136.997226 C47.0988514,135.914647 45.0292137,135.443395 42.2527158,135.672647 Z" id="Vector" fill="#EDB82C" fill-rule="nonzero"></path>
                <g id="Group-3" stroke-width="1" fill-rule="evenodd" transform="translate(31.000000, 0.000000)">
                    <mask id="mask-2" fill="white">
                        <use xlink:href="#path-1"></use>
                    </mask>
                    <g id="Clip-2"></g>
                    <path d="M16.3025744,14.3978077 C15.9390333,14.7245712 15.4853707,15.1237776 14.8988169,15.6894484 C2.61632084,27.5192121 0.815417607,43.7032537 0.338842705,47.9835474 C-1.26501514,62.4012165 3.14788515,73.5497091 6.79704361,82.4617214 C11.5139132,93.9785936 21.247039,117.746015 46.8522476,133.233372 C77.6356258,151.851185 112.130789,146.872666 132.067506,138.59106 C132.631147,138.356777 133.367395,138.051592 134.380116,137.590732 C154.180887,128.546165 170.566204,109.316441 175.739791,86.2318324 C177.248945,79.4992711 182.029969,58.1671629 170.405818,42.7291285 C167.830481,39.3089011 165.190989,37.1633596 163.183876,35.5511208 C151.434471,26.1212192 139.973761,25.782125 125.12662,22.8304641 C120.023297,21.8162641 107.916462,17.8396139 83.7012634,9.88631344 C57.0084864,1.1191869 54.196389,-0.856807513 46.3802551,0.300736796 C41.0248974,1.0945255 27.7541194,4.11092259 16.3025744,14.3978077" id="Fill-1" fill="#F6F6F6" mask="url(#mask-2)"></path>
                </g>
                <path d="M201.652985,57 L175.889313,57 M213.402985,55.5 L209.402985,55.5 M191.402985,69.5 L179.402985,69.5" id="Line-8" stroke="#D6D8DC" stroke-width="2.5" stroke-linecap="round" stroke-linejoin="round"></path>
                <path d="M42.6252073,90 L15.9073254,90 M8.60298507,90 L1.84907882,90 M50.4029851,103.5 L38.4029851,103.5" id="Line-8" stroke="#D6D8DC" stroke-width="2.5" stroke-linecap="round" stroke-linejoin="round"></path>
                <g id="Search" stroke-width="1" fill-rule="evenodd" transform="translate(64.671642, 17.000000)" stroke="#D6D8DC">
                    <ellipse id="Oval" stroke-width="2.5" fill="#D6D8DC" cx="53.2313433" cy="53" rx="52.5" ry="53"></ellipse>
                    <path d="M44.8249781,93.2074228 C47.5792219,93.7158096 50.3813436,93.980002 53.2313433,94 C76.1511604,94 94.7313433,75.4198171 94.7313433,52.5 C94.7313433,29.5801829 76.1511604,11 53.2313433,11 C47.3436076,11 41.7422419,12.2260955 36.6686466,14.436886 C27.8518867,18.2787393 20.6289182,25.0942307 16.2665694,33.6165319 C13.3670792,39.2809869 11.7313433,45.6994701 11.7313433,52.5 C11.7313433,58.6701941 13.0779021,64.5258824 15.493183,69.7892284 C17.217523,73.5468858 19.4865856,77.0026291 22.1992695,80.0553572" id="Oval" stroke-width="2.5" fill="#FFFFFF" stroke-linecap="round"></path>
                    <path d="M28.7313433,86 C31.7134164,88.9295697 35.082412,91.3060066 38.7313433,93" id="Oval" stroke-width="2.5" stroke-linecap="round"></path>
                    <line x1="97.7313433" y1="95" x2="106.731343" y2="104" id="Path-4" stroke-width="2.5" fill="#D6D8DC"></line>
                    <path d="M115.89727,102.282364 C114.256492,100.641586 112.10599,99.8211974 109.955488,99.8211974 C107.804987,99.8211974 105.654485,100.641586 104.013707,102.282364 C102.37293,103.923141 101.552541,106.073643 101.552541,108.224145 C101.552541,110.374647 102.37293,112.525149 104.013707,114.165927 L121.565417,131.717636 C123.206194,133.358414 125.356696,134.178803 127.507198,134.178803 C129.6577,134.178803 131.808202,133.358414 133.448979,131.717636 C135.089757,130.076859 135.910146,127.926357 135.910146,125.775855 C135.910146,123.625353 135.089757,121.474851 133.448979,119.834073 L115.89727,102.282364 Z" id="Rectangle" stroke-width="2.5" fill="#D6D8DC"></path>
                    <line x1="112.731343" y1="107" x2="129.731343" y2="124" id="Line" stroke-width="2.5" stroke-linecap="round"></line>
                </g>
                <ellipse id="Oval" fill="#F5F5F5" fill-rule="evenodd" cx="118.402985" cy="69.5" rx="43" ry="43.5"></ellipse>
            </g>
        </g>
    </g>
</svg>