<?xml version="1.0" encoding="utf-8"?>
<!-- Generator: Adobe Illustrator 25.4.1, SVG Export Plug-In . SVG Version: 6.00 Build 0)  -->
<svg version="1.1" id="Capa_1" xmlns="http://www.w3.org/2000/svg" xmlns:xlink="http://www.w3.org/1999/xlink" x="0px" y="0px"
	 viewBox="0 0 101 94" style="enable-background:new 0 0 101 94;" xml:space="preserve">
<style type="text/css">
	.st0{fill-rule:evenodd;clip-rule:evenodd;fill:#ECECEC;}
	.st1{opacity:0.4268;}
	.st2{fill-rule:evenodd;clip-rule:evenodd;fill:#6C6C6C;}
	.st3{opacity:0.6275;}
	.st4{fill-rule:evenodd;clip-rule:evenodd;}
</style>
<desc>Created with Sketch.</desc>
<g id="Symbols">
	<g id="icono_general" transform="translate(10.000000, 8.000000)">
		<g id="Group">
			<g id="Captura-de-Pantalla-2021-07-28-a-la_x28_s_x29_-16.51.07">
				<g id="Mask">
					<path id="path-2_00000031189805179228079980000018347279581504015756_" class="st0" d="M0-8h81c5.5,0,10,4.5,10,10v74
						c0,5.5-4.5,10-10,10H0c-5.5,0-10-4.5-10-10V2C-10-3.5-5.5-8,0-8z"/>
				</g>
			</g>
			<g id="tray" transform="translate(17.000000, 11.000000)" class="st1">
				<path class="st2" d="M56.2,46h-5v-0.9c0-14.2-9.8-26-22.7-28.6c0-0.1,0.1-0.1,0.1-0.2l1.5-4.7c0.2-0.6,0.1-1.3-0.2-1.9
					c-0.3-0.6-0.9-1-1.6-1.2c-3-0.8-6.2-0.8-9.3,0c-0.7,0.2-1.2,0.6-1.6,1.2c-0.3,0.6-0.4,1.3-0.2,1.9l1.5,4.7c0,0,0,0,0,0
					C5.4,18.6-4.9,30.6-4.9,45.1V46h-4c-0.5,0-1,0.4-1,1v3c0,2.8,2.1,5,4.8,5h57.4c2.6,0,4.8-2.2,4.8-5v-3
					C57.1,46.4,56.7,46,56.2,46z M20.6,15.7l-1.5-4.7c0-0.1,0-0.3,0-0.4c0.1-0.1,0.2-0.2,0.3-0.2c2.7-0.7,5.6-0.7,8.3,0
					c0.1,0,0.3,0.1,0.3,0.2c0.1,0.1,0.1,0.2,0,0.4l-1.5,4.7c-0.1,0.2-0.1,0.3,0,0.5c-1.2-0.2-2.3-0.2-3.5-0.2c-0.8,0-1.7,0-2.5,0.1
					C20.6,16,20.6,15.9,20.6,15.7z M-3,45.1c0-15,11.7-27.2,26.1-27.2s26.1,12.2,26.1,27.2V46H-3V45.1z M55.2,50c0,1.7-1.3,3-2.9,3
					H-5.1c-1.6,0-2.9-1.3-2.9-3v-2h4c0,0,0,0,0,0h54.1c0,0,0,0,0,0h5V50z"/>
				<path id="Fill-4" class="st2" d="M38.2,12c-0.3,0-0.5-0.1-0.7-0.4l-1.5-2c-0.6-0.8-0.9-1.9-0.8-3.1c0.1-1.1,0.6-2.1,1.4-2.7
					c0.4-0.3,0.6-0.8,0.7-1.3c0.1-0.5-0.1-1-0.3-1.5l-1.7-2.4c-0.7-1.1,0.7-2.3,1.4-1.3l1.7,2.4c0.6,0.8,0.8,1.9,0.7,3
					c-0.1,1.1-0.6,2-1.4,2.7c-0.4,0.3-0.6,0.8-0.7,1.3c-0.1,0.5,0.1,1.1,0.4,1.5l1.5,2C39.4,11,39,12,38.2,12z"/>
				<g id="Group-8" transform="translate(13.136364, 0.000000)" class="st3">
					<path id="Fill-5" class="st4" d="M-6.6,11.9c-0.3,0-0.5-0.1-0.7-0.3l-1.6-1.8c-0.7-0.8-1-1.8-0.9-2.8c0.1-1,0.7-1.9,1.5-2.5
						c0.4-0.3,0.7-0.7,0.7-1.2c0.1-0.5-0.1-1-0.4-1.3l-1.7-2.2c-0.8-1,0.7-2.1,1.5-1.1l1.7,2.2c0.6,0.8,0.9,1.8,0.7,2.7
						c-0.1,1-0.7,1.8-1.5,2.4c-0.4,0.3-0.7,0.7-0.7,1.2c-0.1,0.5,0.1,1,0.4,1.3l1.6,1.8C-5.4,10.9-5.8,11.8-6.6,11.9L-6.6,11.9z"/>
					<path id="Fill-7" class="st4" d="M9,5.8c-0.3,0-0.5-0.1-0.7-0.3L6.7,3.6C6,2.9,5.7,1.9,5.8,0.9S6.5-1,7.3-1.6
						C7.7-1.9,8-2.3,8-2.8c0.1-0.5-0.1-1-0.4-1.3L5.9-6.3c-0.7-1,0.7-2.1,1.5-1.1l1.7,2.2C9.8-4.5,10-3.5,9.9-2.5
						c-0.1,1-0.7,1.8-1.5,2.4C8,0.2,7.7,0.6,7.7,1.1c-0.1,0.5,0.1,1,0.4,1.3l1.6,1.8C10.2,4.9,9.8,5.8,9,5.8L9,5.8z"/>
				</g>
			</g>
		</g>
	</g>
</g>
</svg>
